/* XPM */
static char * close_active_xpm[] = {
"38 38 43 1",
" 	c None",
".	c #D4E6FA",
"+	c #A1CBF5",
"@	c #6FB7F2",
"#	c #3FABF1",
"$	c #D5E6FA",
"%	c #D7E7FA",
"&	c #68B5F2",
"*	c #15A6F0",
"=	c #6AB6F2",
"-	c #B4D4F7",
";	c #B6D5F7",
">	c #D8E8FA",
",	c #75CBF6",
"'	c #29AEF1",
")	c #67B6F2",
"!	c #76CBF6",
"~	c #FFFFFF",
"{	c #D7F0FC",
"]	c #D6E6FA",
"^	c #A0CBF5",
"/	c #28ADF1",
"(	c #D6EFFC",
"_	c #DAF1FD",
":	c #2CAFF1",
"<	c #2BAEF1",
"[	c #A2CCF5",
"}	c #6DB7F2",
"|	c #DDF2FD",
"1	c #42ACF1",
"2	c #D9F0FC",
"3	c #DEF2FD",
"4	c #D9F1FD",
"5	c #46ADF1",
"6	c #6EB7F2",
"7	c #DAF1FC",
"8	c #70B8F2",
"9	c #A3CCF5",
"0	c #D6E7FA",
"a	c #6BB7F2",
"b	c #D9E8FA",
"c	c #B7D6F7",
"d	c #B5D5F7",
"                                      ",
"                                      ",
"                                      ",
"                                      ",
"                                      ",
"                                      ",
"                                      ",
"                                      ",
"                                      ",
"               .+@##@+$               ",
"             %&********=%             ",
"            -************-            ",
"           -**************;           ",
"          %****************>          ",
"          =****,'****',****)          ",
"         .****!~{'**'{~!****]         ",
"         ^****/(~_:/(~_<****[         ",
"         }*****/(~|_~_<*****@         ",
"         1******/2~~3<******1         ",
"         1******/4~~|:******5         ",
"         6*****/(~|7~_:*****8         ",
"         +****/(~_</(~_:****9         ",
"         $****!~{'**'{~!****0         ",
"          a****,'****',****&          ",
"          %****************b          ",
"           -**************c           ",
"            d************;            ",
"             >a********ab             ",
"               ][8118[0               ",
"                                      ",
"                                      ",
"                                      ",
"                                      ",
"                                      ",
"                                      ",
"                                      ",
"                                      ",
"                                      "};
