/* XPM */
static char * close_active_xpm[] = {
"38 38 38 1",
" 	c None",
".	c #D6D6D6",
"+	c #A4A4A4",
"@	c #767676",
"#	c #4D4D4D",
"$	c #D8D8D8",
"%	c #707070",
"&	c #333333",
"*	c #717171",
"=	c #B6B6B6",
"-	c #B7B7B7",
";	c #B8B8B8",
">	c #D9D9D9",
",	c #878787",
"'	c #454545",
")	c #6F6F6F",
"!	c #888888",
"~	c #FFFFFF",
"{	c #DCDCDC",
"]	c #D7D7D7",
"^	c #A3A3A3",
"/	c #444444",
"(	c #DBDBDB",
"_	c #DFDFDF",
":	c #474747",
"<	c #464646",
"[	c #A5A5A5",
"}	c #747474",
"|	c #E2E2E2",
"1	c #4F4F4F",
"2	c #DEDEDE",
"3	c #535353",
"4	c #757575",
"5	c #777777",
"6	c #A6A6A6",
"7	c #727272",
"8	c #DADADA",
"9	c #B9B9B9",
"                                      ",
"                                      ",
"                                      ",
"                                      ",
"                                      ",
"                                      ",
"                                      ",
"                                      ",
"                                      ",
"               .+@##@+.               ",
"             $%&&&&&&&&*$             ",
"            =&&&&&&&&&&&&-            ",
"           =&&&&&&&&&&&&&&;           ",
"          $&&&&&&&&&&&&&&&&>          ",
"          *&&&&,'&&&&',&&&&)          ",
"         .&&&&!~{'&&'{~!&&&&]         ",
"         ^&&&&/(~_:/(~_<&&&&[         ",
"         }&&&&&/(~|_~_<&&&&&@         ",
"         1&&&&&&/2~~|<&&&&&&1         ",
"         1&&&&&&/2~~|:&&&&&&3         ",
"         4&&&&&/(~|2~_:&&&&&5         ",
"         +&&&&/(~_</(~_:&&&&6         ",
"         .&&&&!~{'&&'{~!&&&&]         ",
"          7&&&&,'&&&&',&&&&%          ",
"          $&&&&&&&&&&&&&&&&8          ",
"           -&&&&&&&&&&&&&&9           ",
"            ;&&&&&&&&&&&&;            ",
"             >7&&&&&&&&78             ",
"               ][5115[]               ",
"                                      ",
"                                      ",
"                                      ",
"                                      ",
"                                      ",
"                                      ",
"                                      ",
"                                      ",
"                                      "};
