/* XPM */
static char * close_prelight_xpm[] = {
"38 38 45 1",
" 	c None",
".	c #D0D0D0",
"+	c #9C9C9C",
"@	c #767676",
"#	c #4D4D4D",
"$	c #9D9D9D",
"%	c #C1C1C1",
"&	c #535353",
"*	c #333333",
"=	c #555555",
"-	c #C2C2C2",
";	c #858585",
">	c #808080",
",	c #676767",
"'	c #686868",
")	c #828282",
"!	c #848484",
"~	c #C0C0C0",
"{	c #C3C3C3",
"]	c #878787",
"^	c #454545",
"/	c #CFCFCF",
"(	c #888888",
"_	c #FFFFFF",
":	c #DCDCDC",
"<	c #D1D1D1",
"[	c #444444",
"}	c #DBDBDB",
"|	c #DFDFDF",
"1	c #474747",
"2	c #464646",
"3	c #9E9E9E",
"4	c #727272",
"5	c #E2E2E2",
"6	c #4F4F4F",
"7	c #DEDEDE",
"8	c #757575",
"9	c #777777",
"0	c #9F9F9F",
"a	c #D2D2D2",
"b	c #565656",
"c	c #C4C4C4",
"d	c #868686",
"e	c #6A6A6A",
"f	c #818181",
"                                      ",
"                                      ",
"                                      ",
"                                      ",
"                                      ",
"                                      ",
"                                      ",
"                                      ",
"               .+@##@$.               ",
"             %&********=-             ",
"            ;************>            ",
"           ,**************'           ",
"          )****************!          ",
"         ~******************{         ",
"         &*****]^****^]*****=         ",
"        /*****(_:^**^:_(*****<        ",
"        +*****[}_|1[}_|2*****3        ",
"        4******[}_5|_|2******@        ",
"        6*******[7__52*******6        ",
"        6*******[7__51*******&        ",
"        8******[}_57_|1******9        ",
"        $*****[}_|2[}_|1*****0        ",
"        .*****(_:^**^:_(*****a        ",
"         =*****]^****^]*****b         ",
"         -******************c         ",
"          !****************d          ",
"           '**************e           ",
"            d************f            ",
"             {=********bc             ",
"               <$96693<               ",
"                                      ",
"                                      ",
"                                      ",
"                                      ",
"                                      ",
"                                      ",
"                                      ",
"                                      "};
