/* XPM */
static char * close_active_xpm[] = {
"38 38 40 1",
" 	c None",
".	c #DDD9E8",
"+	c #B8ADD1",
"@	c #9987C0",
"#	c #856AB5",
"$	c #DEDAE9",
"%	c #DFDBEA",
"&	c #9682BE",
"*	c #7B5BB1",
"=	c #9784BE",
"-	c #E0DBEA",
";	c #C6BDD9",
">	c #C6BED9",
",	c #C7BFDA",
"'	c #E1DDEB",
")	c #B19FD1",
"!	c #8669B8",
"~	c #9581BE",
"{	c #B29FD1",
"]	c #FFFFFF",
"^	c #E8E3F2",
"/	c #B8ACD0",
"(	c #8669B7",
"_	c #E8E2F1",
":	c #EAE5F3",
"<	c #886BB9",
"[	c #876AB8",
"}	c #B9AED1",
"|	c #9885BF",
"1	c #ECE7F4",
"2	c #856BB6",
"3	c #EAE4F2",
"4	c #ECE8F4",
"5	c #EAE5F2",
"6	c #876DB6",
"7	c #9985BF",
"8	c #9A88C0",
"9	c #BAAFD2",
"0	c #DFDBE9",
"a	c #9784BF",
"                                      ",
"                                      ",
"                                      ",
"                                      ",
"                                      ",
"                                      ",
"                                      ",
"                                      ",
"                                      ",
"               .+@##@+$               ",
"             %&********=-             ",
"            ;************>            ",
"           ;**************,           ",
"          %****************'          ",
"          =****)!****!)****~          ",
"         .****{]^!**!^]{****$         ",
"         /****(_]:<(_]:[****}         ",
"         |*****(_]1:]:[*****@         ",
"         2******(3]]4[******2         ",
"         2******(5]]1<******6         ",
"         7*****(_]15]:<*****8         ",
"         +****(_]:[(_]:<****9         ",
"         $****{]^!**!^]{****0         ",
"          a****)!****!)****&          ",
"          -****************'          ",
"           >**************,           ",
"            >************,            ",
"             'a********a'             ",
"               $}8228}0               ",
"                                      ",
"                                      ",
"                                      ",
"                                      ",
"                                      ",
"                                      ",
"                                      ",
"                                      ",
"                                      "};
