/* XPM */
static char * close_pressed_xpm[] = {
"38 38 49 1",
" 	c None",
".	c #D5D2E0",
"+	c #ABA1C1",
"@	c #8E7EAF",
"#	c #755CA1",
"$	c #ABA2C1",
"%	c #D6D2E0",
"&	c #C9C4D6",
"*	c #7760A2",
"=	c #68499B",
"-	c #7862A3",
";	c #CAC4D7",
">	c #998CB6",
",	c #9587B4",
"'	c #8471A9",
")	c #8572AA",
"!	c #9789B5",
"~	c #988BB5",
"{	c #C8C2D6",
"]	c #CBC5D8",
"^	c #A694C4",
"/	c #7559A4",
"(	c #D5D1DF",
"_	c #A795C5",
":	c #FFFFFF",
"<	c #E5E0EE",
"[	c #7458A3",
"}	c #E4DFED",
"|	c #E7E2EF",
"1	c #775BA5",
"2	c #765AA4",
"3	c #ACA2C2",
"4	c #8B7BAE",
"5	c #E9E4F0",
"6	c #755DA2",
"7	c #E6E2EE",
"8	c #EAE5F1",
"9	c #E6E2EF",
"0	c #E9E5F1",
"a	c #8D7DAF",
"b	c #8F80B0",
"c	c #ADA3C3",
"d	c #D7D4E1",
"e	c #7963A4",
"f	c #CCC7D9",
"g	c #9A8DB6",
"h	c #8573AA",
"i	c #9688B4",
"j	c #D7D3E1",
"                                      ",
"                                      ",
"                                      ",
"                                      ",
"                                      ",
"                                      ",
"                                      ",
"                                      ",
"               .+@##@$%               ",
"             &*========-;             ",
"            >============,            ",
"           '==============)           ",
"          !================~          ",
"         {==================]         ",
"         *=====^/====/^=====-         ",
"        (=====_:</==/<:_=====%        ",
"        +=====[}:|1[}:|2=====3        ",
"        4======[}:5|:|2======@        ",
"        6=======[7::82=======6        ",
"        6=======[9::01=======*        ",
"        a======[}:0|:|1======b        ",
"        $=====[}:|2[}:|1=====c        ",
"        %=====_:</==/<:_=====d        ",
"         -=====^/====/^=====e         ",
"         ;==================f         ",
"          ~================g          ",
"           )==============h           ",
"            g============i            ",
"             ]-========ef             ",
"               %$b66b3j               ",
"                                      ",
"                                      ",
"                                      ",
"                                      ",
"                                      ",
"                                      ",
"                                      ",
"                                      "};
