/* XPM */
static char * close_inactive_xpm[] = {
"38 38 30 1",
" 	c None",
".	c #FEEFEB",
"+	c #FFE0D7",
"@	c #FED5C9",
"#	c #FECFC1",
"$	c #FFF0EC",
"%	c #FEF0EC",
"&	c #FED4C8",
"*	c #FECCBD",
"=	c #FFF1ED",
"-	c #FFE5DE",
";	c #FEE5DE",
">	c #FEE6DF",
",	c #FEDDCD",
"'	c #FED0BF",
")	c #FEDECD",
"!	c #FFFFFF",
"~	c #FFF4ED",
"{	c #FEE0D7",
"]	c #FECFBF",
"^	c #FFF5EF",
"/	c #FFE0D8",
"(	c #FFF6F0",
"_	c #FFF5EE",
":	c #FFF6F1",
"<	c #FFF4EE",
"[	c #FED0C1",
"}	c #FEE0D8",
"|	c #FEF1ED",
"1	c #FFE6DF",
"                                      ",
"                                      ",
"                                      ",
"                                      ",
"                                      ",
"                                      ",
"                                      ",
"                                      ",
"                                      ",
"               .+@##@+$               ",
"             %&********&=             ",
"            -************;            ",
"           -**************>           ",
"          %****************=          ",
"          &****,'****',****&          ",
"         .****)!~'**'~!)****%         ",
"         {****]~!^']~!^'****/         ",
"         @*****]~!(^!^'*****@         ",
"         #******]_!!:'******#         ",
"         #******]<!!('******[         ",
"         @*****]~!(^!^'*****@         ",
"         +****]~!^']~!^'****}         ",
"         $****)!~'**'~!)****$         ",
"          &****,'****',****&          ",
"          =****************|          ",
"           ;**************1           ",
"            1************>            ",
"             =&********&|             ",
"               %/@##@/$               ",
"                                      ",
"                                      ",
"                                      ",
"                                      ",
"                                      ",
"                                      ",
"                                      ",
"                                      ",
"                                      "};
