/* XPM */
static char * close_active_xpm[] = {
"38 38 41 1",
" 	c None",
".	c #FEDED5",
"+	c #FEBAA2",
"@	c #FD9D73",
"#	c #FD8947",
"$	c #FEDFD6",
"%	c #FEE0D7",
"&	c #FD996D",
"*	c #FD8028",
"=	c #FD9A6E",
"-	c #FEE0D8",
";	c #FEC7B5",
">	c #FEC7B6",
",	c #FEC8B7",
"'	c #FEE1D9",
")	c #FEB481",
"!	c #FD8B3B",
"~	c #FD996B",
"{	c #FEB581",
"]	c #FFFFFF",
"^	c #FFE9DA",
"/	c #FEB9A2",
"(	c #FD8A3A",
"_	c #FFE9D9",
":	c #FFEBDD",
"<	c #FD8C3D",
"[	c #FD8C3C",
"}	c #FEBBA4",
"|	c #FD9B70",
"1	c #FFEDE0",
"2	c #FD8A49",
"3	c #FFEBDC",
"4	c #FFEDE1",
"5	c #FFEADC",
"6	c #FD8B4D",
"7	c #FD9C72",
"8	c #FD9D74",
"9	c #FEBBA5",
"0	c #FD9B6F",
"a	c #FEE2D9",
"b	c #FEC9B8",
"                                      ",
"                                      ",
"                                      ",
"                                      ",
"                                      ",
"                                      ",
"                                      ",
"                                      ",
"                                      ",
"               .+@##@+$               ",
"             %&********=-             ",
"            ;************>            ",
"           ;**************,           ",
"          %****************'          ",
"          =****)!****!)****~          ",
"         .****{]^!**!^]{****$         ",
"         /****(_]:<(_]:[****}         ",
"         |*****(_]1:]:[*****@         ",
"         2******(3]]4[******2         ",
"         2******(5]]1<******6         ",
"         7*****(_]1:]:<*****8         ",
"         +****(_]:[(_]:<****9         ",
"         $****{]^!**!^]{****%         ",
"          0****)!****!)****&          ",
"          -****************a          ",
"           >**************b           ",
"            ,************,            ",
"             '0********0a             ",
"               $}8228}%               ",
"                                      ",
"                                      ",
"                                      ",
"                                      ",
"                                      ",
"                                      ",
"                                      ",
"                                      ",
"                                      "};
