/* XPM */
static char * close_prelight_xpm[] = {
"38 38 48 1",
" 	c None",
".	c #CEE2F9",
"+	c #98C8F5",
"@	c #6FB7F2",
"#	c #3FABF1",
"$	c #99C8F5",
"%	c #CFE3F9",
"&	c #BFDAF8",
"*	c #46ADF1",
"=	c #15A6F0",
"-	c #49ADF1",
";	c #C0DAF8",
">	c #7FBDF3",
",	c #7ABBF3",
"'	c #5EB2F2",
")	c #60B3F2",
"!	c #7CBBF3",
"~	c #7EBDF3",
"{	c #BED9F8",
"]	c #C1DBF8",
"^	c #75CBF6",
"/	c #29AEF1",
"(	c #76CBF6",
"_	c #FFFFFF",
":	c #D7F0FC",
"<	c #28ADF1",
"[	c #D6EFFC",
"}	c #DAF1FD",
"|	c #2CAFF1",
"1	c #2BAEF1",
"2	c #9AC8F5",
"3	c #6BB7F2",
"4	c #DDF2FD",
"5	c #42ACF1",
"6	c #D9F0FC",
"7	c #DEF2FD",
"8	c #D9F1FD",
"9	c #6EB7F2",
"0	c #DAF1FC",
"a	c #70B8F2",
"b	c #9BC9F5",
"c	c #D1E3F9",
"d	c #4BADF1",
"e	c #C2DCF8",
"f	c #81BEF3",
"g	c #61B3F2",
"h	c #7BBCF3",
"i	c #D0E3F9",
"                                      ",
"                                      ",
"                                      ",
"                                      ",
"                                      ",
"                                      ",
"                                      ",
"                                      ",
"               .+@##@$%               ",
"             &*========-;             ",
"            >============,            ",
"           '==============)           ",
"          !================~          ",
"         {==================]         ",
"         *=====^/====/^=====-         ",
"        .=====(_:/==/:_(=====%        ",
"        +=====<[_}|<[_}1=====2        ",
"        3======<[_4}_}1======@        ",
"        5=======<6__71=======5        ",
"        5=======<8__4|=======*        ",
"        9======<[_40_}|======a        ",
"        $=====<[_}1<[_}|=====b        ",
"        %=====(_:/==/:_(=====c        ",
"         -=====^/====/^=====d         ",
"         ;==================e         ",
"          ~================f          ",
"           )==============g           ",
"            f============h            ",
"             ]-========de             ",
"               %$a55a2i               ",
"                                      ",
"                                      ",
"                                      ",
"                                      ",
"                                      ",
"                                      ",
"                                      ",
"                                      "};
