/* XPM */
static char * close_inactive_xpm[] = {
"38 38 31 1",
" 	c None",
".	c #EBF3FC",
"+	c #D7E7FA",
"@	c #C8E0F9",
"#	c #C0DBF8",
"$	c #EBF3FD",
"%	c #ECF3FC",
"&	c #C7DEF8",
"*	c #BCD8F7",
"=	c #C7DFF9",
"-	c #ECF4FD",
";	c #DEEBFB",
">	c #EDF4FD",
",	c #CAE7FA",
"'	c #BDDBF8",
")	c #FFFFFF",
"!	c #ECF7FD",
"~	c #D6E7FA",
"{	c #EBF7FD",
"]	c #EDF8FE",
"^	c #BDDCF8",
"/	c #D7E8FA",
"(	c #C8DFF9",
"_	c #EFF8FE",
":	c #C0DAF8",
"<	c #EDF7FD",
"[	c #C8DFF8",
"}	c #EDF8FD",
"|	c #C7DFF8",
"1	c #EDF4FC",
"2	c #DFECFB",
"                                      ",
"                                      ",
"                                      ",
"                                      ",
"                                      ",
"                                      ",
"                                      ",
"                                      ",
"                                      ",
"               .+@##@+$               ",
"             %&********=-             ",
"            ;************;            ",
"           ;**************;           ",
"          %****************>          ",
"          =****,'****',****=          ",
"         .****,)!'**'!),****.         ",
"         ~****'{)]^'{)]'****/         ",
"         (*****'{)_])]'*****@         ",
"         :******'<))_'******:         ",
"         :******']))_^******#         ",
"         [*****'{)_})]^*****[         ",
"         +****'{)]''{)]^****+         ",
"         $****,)!'**'!),****-         ",
"          |****,'****',****&          ",
"          -****************1          ",
"           ;**************2           ",
"            ;************;            ",
"             >|********|1             ",
"               ./[::[/-               ",
"                                      ",
"                                      ",
"                                      ",
"                                      ",
"                                      ",
"                                      ",
"                                      ",
"                                      ",
"                                      "};
