/* XPM */
static char * close_inactive_xpm[] = {
"38 38 24 1",
" 	c None",
".	c #F9EBEB",
"+	c #F5D8D8",
"@	c #F1CACA",
"#	c #F0C2C2",
"$	c #F9ECEC",
"%	c #FAECEC",
"&	c #F1C8C8",
"*	c #EEBEBE",
"=	c #F1C9C9",
"-	c #FAEDED",
";	c #F7DFDF",
">	c #F6DFDF",
",	c #F4CECE",
"'	c #F0C0C0",
")	c #F5CECE",
"!	c #FFFFFF",
"~	c #FCEEEE",
"{	c #F4D7D7",
"]	c #FCF0F0",
"^	c #FCF1F1",
"/	c #FCEFEF",
"(	c #EFC2C2",
"_	c #F7E0DF",
"                                      ",
"                                      ",
"                                      ",
"                                      ",
"                                      ",
"                                      ",
"                                      ",
"                                      ",
"                                      ",
"               .+@##@+$               ",
"             %&********=-             ",
"            ;************>            ",
"           ;**************>           ",
"          %****************-          ",
"          =****,'****',****&          ",
"         .****)!~'**'~!)****$         ",
"         {****'~!]''~!]'****+         ",
"         =*****'~!^/!]'*****@         ",
"         (******'/!!^'******(         ",
"         (******'/!!^'******(         ",
"         =*****'~!^/!]'*****@         ",
"         +****'~!]''~!]'****+         ",
"         $****)!~'**'~!)****%         ",
"          =****,'****',****&          ",
"          -****************-          ",
"           >**************_           ",
"            ;************>            ",
"             -=********=-             ",
"               $+@((@+%               ",
"                                      ",
"                                      ",
"                                      ",
"                                      ",
"                                      ",
"                                      ",
"                                      ",
"                                      ",
"                                      "};
