/* XPM */
static char * close_prelight_xpm[] = {
"38 38 46 1",
" 	c None",
".	c #F3D0D0",
"+	c #E89C9C",
"@	c #E27676",
"#	c #DF4D4C",
"$	c #E89D9D",
"%	c #EFC1C1",
"&	c #DE5252",
"*	c #DC3231",
"=	c #DE5454",
"-	c #EFC2C1",
";	c #E48584",
">	c #E4807F",
",	c #E06766",
"'	c #E06868",
")	c #E38281",
"!	c #E48483",
"~	c #EFC0C0",
"{	c #F0C3C3",
"]	c #EA8686",
"^	c #DF4443",
"/	c #F2CFCF",
"(	c #EB8787",
"_	c #FFFFFF",
":	c #F9DCDB",
"<	c #F3D1D1",
"[	c #DF4342",
"}	c #F9DBDB",
"|	c #FADFDF",
"1	c #DF4645",
"2	c #DF4544",
"3	c #E17272",
"4	c #FAE2E2",
"5	c #F9DEDE",
"6	c #DE4F4E",
"7	c #E27574",
"8	c #FAE2E1",
"9	c #FADEDE",
"0	c #E17776",
"a	c #E89E9E",
"b	c #F3D2D2",
"c	c #DE5655",
"d	c #F0C4C4",
"e	c #E38585",
"f	c #E06969",
"g	c #E38181",
"                                      ",
"                                      ",
"                                      ",
"                                      ",
"                                      ",
"                                      ",
"                                      ",
"                                      ",
"               .+@##@$.               ",
"             %&********=-             ",
"            ;************>            ",
"           ,**************'           ",
"          )****************!          ",
"         ~******************{         ",
"         &*****]^****^]*****=         ",
"        /*****(_:^**^:_(*****<        ",
"        +*****[}_|1[}_|2*****$        ",
"        3******[}_45_|2******@        ",
"        6*******[5__42*******6        ",
"        6*******[5__41*******&        ",
"        7******[}_89_|1******0        ",
"        $*****[}_|2[}_|1*****a        ",
"        .*****(_:^**^:_(*****b        ",
"         =*****]^****^]*****c         ",
"         -******************d         ",
"          !****************e          ",
"           '**************f           ",
"            e************g            ",
"             {=********cd             ",
"               <$0660$<               ",
"                                      ",
"                                      ",
"                                      ",
"                                      ",
"                                      ",
"                                      ",
"                                      ",
"                                      "};
