/* XPM */
static char * close_pressed_xpm[] = {
"38 38 49 1",
" 	c None",
".	c #CEDCEE",
"+	c #98BADF",
"@	c #6EA5D7",
"#	c #3D94D1",
"$	c #99BBE0",
"%	c #CFDDEF",
"&	c #BFD2E9",
"*	c #4596D2",
"=	c #0D8DCF",
"-	c #4797D2",
";	c #BFD2EA",
">	c #7FADDA",
",	c #79AAD9",
"'	c #5D9ED5",
")	c #5FA0D5",
"!	c #7BACD9",
"~	c #7EADDA",
"{	c #BDD1E9",
"]	c #C1D3EA",
"^	c #71BCE3",
"/	c #2297D3",
"(	c #CDDCEE",
"_	c #72BCE3",
":	c #FFFFFF",
"<	c #D5EBF7",
"[	c #CFDDEE",
"}	c #2196D3",
"|	c #D4EBF7",
"1	c #D9EDF7",
"2	c #2598D4",
"3	c #2498D4",
"4	c #6AA4D7",
"5	c #DCEEF8",
"6	c #4095D2",
"7	c #D8EDF8",
"8	c #DDEFF8",
"9	c #D8ECF7",
"0	c #6DA5D7",
"a	c #DCEFF8",
"b	c #6FA6D8",
"c	c #9ABCDF",
"d	c #D0DEEE",
"e	c #4998D2",
"f	c #C2D4EA",
"g	c #80AEDA",
"h	c #60A0D4",
"i	c #7AABD9",
"j	c #D0DEEF",
"                                      ",
"                                      ",
"                                      ",
"                                      ",
"                                      ",
"                                      ",
"                                      ",
"                                      ",
"               .+@##@$%               ",
"             &*========-;             ",
"            >============,            ",
"           '==============)           ",
"          !================~          ",
"         {==================]         ",
"         *=====^/====/^=====-         ",
"        (=====_:</==/<:_=====[        ",
"        +=====}|:12}|:13=====$        ",
"        4======}|:51:13======@        ",
"        6=======}7::83=======6        ",
"        6=======}9::82=======*        ",
"        0======}|:a7:12======b        ",
"        $=====}|:13}|:12=====c        ",
"        %=====_:</==/<:_=====d        ",
"         -=====^/====/^=====e         ",
"         ;==================f         ",
"          ~================g          ",
"           )==============h           ",
"            g============i            ",
"             ]-========ef             ",
"               [$b66b$j               ",
"                                      ",
"                                      ",
"                                      ",
"                                      ",
"                                      ",
"                                      ",
"                                      ",
"                                      "};
