/* XPM */
static char * close_inactive_xpm[] = {
"38 38 29 1",
" 	c None",
".	c #EBF6F2",
"+	c #D7EFE5",
"@	c #C9EADC",
"#	c #C1E7D7",
"$	c #ECF7F2",
"%	c #C7E9DB",
"&	c #BDE5D5",
"*	c #C8EADC",
"=	c #DEF2E9",
"-	c #DFF2E9",
";	c #EDF8F3",
">	c #CCF0E4",
",	c #BFE8D8",
"'	c #FFFFFF",
")	c #EDFAF6",
"!	c #D7EFE4",
"~	c #BEE8D7",
"{	c #EFFAF7",
"]	c #D8F0E5",
"^	c #F0FBF7",
"/	c #EEFAF7",
"(	c #F0FBF8",
"_	c #C1E7D8",
":	c #C8E9DC",
"<	c #D8EFE5",
"[	c #C8E9DB",
"}	c #EDF7F3",
"|	c #DFF3EA",
"                                      ",
"                                      ",
"                                      ",
"                                      ",
"                                      ",
"                                      ",
"                                      ",
"                                      ",
"                                      ",
"               .+@##@+$               ",
"             $%&&&&&&&&*$             ",
"            =&&&&&&&&&&&&=            ",
"           =&&&&&&&&&&&&&&-           ",
"          $&&&&&&&&&&&&&&&&;          ",
"          *&&&&>,&&&&,>&&&&%          ",
"         .&&&&>'),&&,)'>&&&&$         ",
"         !&&&&~)'{,~)'{,&&&&]         ",
"         *&&&&&~)'^/'{,&&&&&@         ",
"         #&&&&&&~/''(,&&&&&&#         ",
"         #&&&&&&~/''(,&&&&&&_         ",
"         :&&&&&~)'({'{,&&&&&@         ",
"         +&&&&~)'{,~)'{,&&&&<         ",
"         $&&&&>'),&&,)'>&&&&$         ",
"          [&&&&>,&&&&,>&&&&%          ",
"          $&&&&&&&&&&&&&&&&}          ",
"           =&&&&&&&&&&&&&&|           ",
"            -&&&&&&&&&&&&-            ",
"             ;[&&&&&&&&[}             ",
"               $]@##@]$               ",
"                                      ",
"                                      ",
"                                      ",
"                                      ",
"                                      ",
"                                      ",
"                                      ",
"                                      ",
"                                      "};
