/* XPM */
static char * close_pressed_xpm[] = {
"38 38 47 1",
" 	c None",
".	c #CFE2DA",
"+	c #99C8B5",
"@	c #71B79E",
"#	c #43AB8B",
"$	c #9AC8B6",
"%	c #CFE3DA",
"&	c #C0DACF",
"*	c #4AAD8D",
"=	c #20A682",
"-	c #4CAD8E",
";	c #C0DAD0",
">	c #81BDA7",
",	c #7CBBA4",
"'	c #61B296",
")	c #62B397",
"!	c #7EBBA5",
"~	c #80BDA5",
"{	c #BED9CF",
"]	c #C1DBD1",
"^	c #7CCBB5",
"/	c #33AE8D",
"(	c #CEE2D9",
"_	c #7DCBB6",
":	c #FFFFFF",
"<	c #D9F0E9",
"[	c #D0E3DB",
"}	c #32AD8C",
"|	c #D8EFE9",
"1	c #DCF1EB",
"2	c #36AF8E",
"3	c #35AE8E",
"4	c #9BC8B6",
"5	c #6DB79C",
"6	c #DFF2ED",
"7	c #45AC8B",
"8	c #DBF0EB",
"9	c #DBF1EB",
"0	c #70B79D",
"a	c #72B89F",
"b	c #9CC9B7",
"c	c #D1E3DC",
"d	c #4EAD8E",
"e	c #C3DCD1",
"f	c #82BEA7",
"g	c #64B397",
"h	c #7DBCA4",
"                                      ",
"                                      ",
"                                      ",
"                                      ",
"                                      ",
"                                      ",
"                                      ",
"                                      ",
"               .+@##@$%               ",
"             &*========-;             ",
"            >============,            ",
"           '==============)           ",
"          !================~          ",
"         {==================]         ",
"         *=====^/====/^=====-         ",
"        (=====_:</==/<:_=====[        ",
"        +=====}|:12}|:13=====4        ",
"        5======}|:61:13======@        ",
"        7=======}8::63=======7        ",
"        7=======}9::62=======*        ",
"        0======}|:61:12======a        ",
"        $=====}|:13}|:12=====b        ",
"        %=====_:</==/<:_=====c        ",
"         -=====^/====/^=====d         ",
"         ;==================e         ",
"          ~================f          ",
"           )==============g           ",
"            f============h            ",
"             ]-========de             ",
"               [$a77a4[               ",
"                                      ",
"                                      ",
"                                      ",
"                                      ",
"                                      ",
"                                      ",
"                                      ",
"                                      "};
