/* XPM */
static char * close_inactive_xpm[] = {
"38 38 21 1",
" 	c None",
".	c #EBEBEB",
"+	c #D8D8D8",
"@	c #CACACA",
"#	c #C2C2C2",
"$	c #ECECEC",
"%	c #C8C8C8",
"&	c #BEBEBE",
"*	c #C9C9C9",
"=	c #EDEDED",
"-	c #DFDFDF",
";	c #CECECE",
">	c #C0C0C0",
",	c #FFFFFF",
"'	c #EEEEEE",
")	c #D7D7D7",
"!	c #F0F0F0",
"~	c #C1C1C1",
"{	c #F1F1F1",
"]	c #EFEFEF",
"^	c #E0E0E0",
"                                      ",
"                                      ",
"                                      ",
"                                      ",
"                                      ",
"                                      ",
"                                      ",
"                                      ",
"                                      ",
"               .+@##@+$               ",
"             $%&&&&&&&&*=             ",
"            -&&&&&&&&&&&&-            ",
"           -&&&&&&&&&&&&&&-           ",
"          $&&&&&&&&&&&&&&&&=          ",
"          *&&&&;>&&&&>;&&&&%          ",
"         .&&&&;,'>&&>',;&&&&$         ",
"         )&&&&>',!~>',!>&&&&+         ",
"         *&&&&&>',{!,!>&&&&&@         ",
"         #&&&&&&>],,{>&&&&&&#         ",
"         #&&&&&&>],,{~&&&&&&#         ",
"         *&&&&&>',{],!~&&&&&@         ",
"         +&&&&>',!>>',!~&&&&+         ",
"         $&&&&;,'>&&>',;&&&&$         ",
"          *&&&&;>&&&&>;&&&&%          ",
"          =&&&&&&&&&&&&&&&&=          ",
"           -&&&&&&&&&&&&&&^           ",
"            -&&&&&&&&&&&&-            ",
"             =*&&&&&&&&*=             ",
"               $+@##@+$               ",
"                                      ",
"                                      ",
"                                      ",
"                                      ",
"                                      ",
"                                      ",
"                                      ",
"                                      ",
"                                      "};
