/* XPM */
static char * close_pressed_xpm[] = {
"38 38 43 1",
" 	c None",
".	c #CFCFCF",
"+	c #999999",
"@	c #717171",
"#	c #434343",
"$	c #9A9A9A",
"%	c #C0C0C0",
"&	c #4A4A4A",
"*	c #1F1F1F",
"=	c #4C4C4C",
"-	c #818181",
";	c #7B7B7B",
">	c #606060",
",	c #626262",
"'	c #7E7E7E",
")	c #808080",
"!	c #BEBEBE",
"~	c #C1C1C1",
"{	c #323232",
"]	c #CECECE",
"^	c #7C7C7C",
"/	c #FFFFFF",
"(	c #D8D8D8",
"_	c #D0D0D0",
":	c #313131",
"<	c #D7D7D7",
"[	c #DCDCDC",
"}	c #353535",
"|	c #343434",
"1	c #9B9B9B",
"2	c #6D6D6D",
"3	c #DFDFDF",
"4	c #DBDBDB",
"5	c #454545",
"6	c #DADADA",
"7	c #707070",
"8	c #727272",
"9	c #9C9C9C",
"0	c #D1D1D1",
"a	c #4E4E4E",
"b	c #C3C3C3",
"c	c #828282",
"d	c #636363",
"                                      ",
"                                      ",
"                                      ",
"                                      ",
"                                      ",
"                                      ",
"                                      ",
"                                      ",
"               .+@##@$.               ",
"             %&********=%             ",
"            -************;            ",
"           >**************,           ",
"          '****************)          ",
"         !******************~         ",
"         &*****;{****{;*****=         ",
"        ]*****^/({**{(/^*****_        ",
"        +*****:</[}:</[|*****1        ",
"        2******:</34/[|******@        ",
"        5*******:6//3|*******5        ",
"        5*******:4//3}*******&        ",
"        7******:</34/[}******8        ",
"        $*****:</[|:</[}*****9        ",
"        .*****^/({**{(/^*****0        ",
"         =*****;{****{;*****a         ",
"         %******************b         ",
"          )****************c          ",
"           ,**************d           ",
"            c************^            ",
"             ~=********ab             ",
"               _$85581_               ",
"                                      ",
"                                      ",
"                                      ",
"                                      ",
"                                      ",
"                                      ",
"                                      ",
"                                      "};
