/* XPM */
static char * close_inactive_xpm[] = {
"38 38 26 1",
" 	c None",
".	c #EFEDF4",
"+	c #DFDBEA",
"@	c #D4CFE2",
"#	c #CEC7DF",
"$	c #EFEEF4",
"%	c #D3CDE1",
"&	c #CBC4DC",
"*	c #D3CEE2",
"=	c #F0EEF5",
"-	c #E5E1ED",
";	c #E5E2ED",
">	c #F1EFF5",
",	c #DCD6E9",
"'	c #FFFFFF",
")	c #F3F1F8",
"!	c #DFDBE9",
"~	c #F4F2F9",
"{	c #E0DCEA",
"]	c #D4CEE2",
"^	c #F5F3F9",
"/	c #F4F1F8",
"(	c #F4F2F8",
"_	c #CEC8DE",
":	c #E0DBEA",
"<	c #F0EEF4",
"                                      ",
"                                      ",
"                                      ",
"                                      ",
"                                      ",
"                                      ",
"                                      ",
"                                      ",
"                                      ",
"               .+@##@+.               ",
"             $%&&&&&&&&*=             ",
"            -&&&&&&&&&&&&-            ",
"           -&&&&&&&&&&&&&&;           ",
"          $&&&&&&&&&&&&&&&&>          ",
"          *&&&&,#&&&&#,&&&&%          ",
"         .&&&&,')#&&#)',&&&&.         ",
"         !&&&&#)'~##)'~#&&&&{         ",
"         ]&&&&&#)'^~'~#&&&&&@         ",
"         #&&&&&&#/''^#&&&&&&#         ",
"         #&&&&&&#(''^#&&&&&&_         ",
"         ]&&&&&#)'^('~#&&&&&@         ",
"         +&&&&#)'~##)'~#&&&&:         ",
"         .&&&&,')#&&#)',&&&&<         ",
"          %&&&&,#&&&&#,&&&&%          ",
"          =&&&&&&&&&&&&&&&&=          ",
"           -&&&&&&&&&&&&&&;           ",
"            ;&&&&&&&&&&&&;            ",
"             >%&&&&&&&&%=             ",
"               .{@##@{<               ",
"                                      ",
"                                      ",
"                                      ",
"                                      ",
"                                      ",
"                                      ",
"                                      ",
"                                      ",
"                                      "};
