/* XPM */
static char * close_active_xpm[] = {
"38 38 40 1",
" 	c None",
".	c #F4D6D6",
"+	c #E9A4A4",
"@	c #E27676",
"#	c #DF4D4C",
"$	c #F5D8D8",
"%	c #E1706F",
"&	c #DC3231",
"*	c #E17171",
"=	c #EDB6B6",
"-	c #EDB7B7",
";	c #EDB8B8",
">	c #F5D9D9",
",	c #EA8686",
"'	c #DF4443",
")	c #E26F6E",
"!	c #EB8787",
"~	c #FFFFFF",
"{	c #F9DCDB",
"]	c #F4D7D7",
"^	c #E9A3A3",
"/	c #DF4342",
"(	c #F9DBDB",
"_	c #FADFDF",
":	c #DF4645",
"<	c #DF4544",
"[	c #E9A5A5",
"}	c #E27373",
"|	c #FAE2E2",
"1	c #F9DEDE",
"2	c #DE4F4E",
"3	c #DE5252",
"4	c #E27574",
"5	c #FAE2E1",
"6	c #FADEDE",
"7	c #E17776",
"8	c #EAA6A6",
"9	c #E17272",
"0	c #F5DADA",
"a	c #EDB9B9",
"                                      ",
"                                      ",
"                                      ",
"                                      ",
"                                      ",
"                                      ",
"                                      ",
"                                      ",
"                                      ",
"               .+@##@+.               ",
"             $%&&&&&&&&*$             ",
"            =&&&&&&&&&&&&-            ",
"           =&&&&&&&&&&&&&&;           ",
"          $&&&&&&&&&&&&&&&&>          ",
"          *&&&&,'&&&&',&&&&)          ",
"         .&&&&!~{'&&'{~!&&&&]         ",
"         ^&&&&/(~_:/(~_<&&&&[         ",
"         }&&&&&/(~|1~_<&&&&&@         ",
"         2&&&&&&/1~~|<&&&&&&2         ",
"         2&&&&&&/1~~|:&&&&&&3         ",
"         4&&&&&/(~56~_:&&&&&7         ",
"         +&&&&/(~_</(~_:&&&&8         ",
"         .&&&&!~{'&&'{~!&&&&]         ",
"          9&&&&,'&&&&',&&&&%          ",
"          $&&&&&&&&&&&&&&&&0          ",
"           -&&&&&&&&&&&&&&a           ",
"            -&&&&&&&&&&&&;            ",
"             >9&&&&&&&&90             ",
"               ][7227[]               ",
"                                      ",
"                                      ",
"                                      ",
"                                      ",
"                                      ",
"                                      ",
"                                      ",
"                                      ",
"                                      "};
