/* XPM */
static char * close_pressed_xpm[] = {
"38 38 49 1",
" 	c None",
".	c #EACFCF",
"+	c #D99999",
"@	c #CE7171",
"#	c #C64444",
"$	c #D89A9A",
"%	c #EBCFCF",
"&	c #E5C0C0",
"*	c #C74B4A",
"=	c #C32221",
"-	c #C84D4C",
";	c #D18181",
">	c #D07C7C",
",	c #CA6161",
"'	c #CB6362",
")	c #D17E7E",
"!	c #D18080",
"~	c #E5BFBE",
"{	c #E6C2C2",
"]	c #DC7D7C",
"^	c #C83534",
"/	c #EACECE",
"(	c #DC7E7D",
"_	c #FFFFFF",
":	c #F5D9D9",
"<	c #EAD0D0",
"[	c #C83433",
"}	c #F4D8D8",
"|	c #F6DCDC",
"1	c #C93837",
"2	c #C93736",
"3	c #D89B9B",
"4	c #CC6E6D",
"5	c #F7DFDF",
"6	c #F5DCDC",
"7	c #C64746",
"8	c #F5DBDB",
"9	c #F7E0E0",
"0	c #CD7070",
"a	c #F6DFDF",
"b	c #CE7372",
"c	c #D99C9C",
"d	c #EBD1D1",
"e	c #C74F4E",
"f	c #E5C3C3",
"g	c #D28282",
"h	c #CB6464",
"i	c #D17D7D",
"j	c #EBD0D0",
"                                      ",
"                                      ",
"                                      ",
"                                      ",
"                                      ",
"                                      ",
"                                      ",
"                                      ",
"               .+@##@$%               ",
"             &*========-&             ",
"            ;============>            ",
"           ,=============='           ",
"          )================!          ",
"         ~=================={         ",
"         *=====]^====^]=====-         ",
"        /=====(_:^==^:_(=====<        ",
"        +=====[}_|1[}_|2=====3        ",
"        4======[}_56_|2======@        ",
"        7=======[8__92=======7        ",
"        7=======[8__51=======*        ",
"        0======[}_a6_|1======b        ",
"        $=====[}_|2[}_|1=====c        ",
"        %=====(_:^==^:_(=====d        ",
"         -=====]^====^]=====e         ",
"         &==================f         ",
"          !================g          ",
"           '==============h           ",
"            g============i            ",
"             {-========ef             ",
"               <$b77b3j               ",
"                                      ",
"                                      ",
"                                      ",
"                                      ",
"                                      ",
"                                      ",
"                                      ",
"                                      "};
