/* XPM */
static char * close_active_xpm[] = {
"38 38 42 1",
" 	c None",
".	c #D5EEE3",
"+	c #A2DDC7",
"@	c #72D2B0",
"#	c #46CBA2",
"$	c #D6EEE4",
"%	c #D7EFE5",
"&	c #6CD0AE",
"*	c #26C89C",
"=	c #6DD2AE",
"-	c #D8EFE5",
";	c #B5E3D1",
">	c #B6E3D1",
",	c #B7E3D2",
"'	c #D9F0E6",
")	c #7FDFC5",
"!	c #39CDA5",
"~	c #6BD0AD",
"{	c #80DFC5",
"]	c #FFFFFF",
"^	c #DAF6EE",
"/	c #D6EFE4",
"(	c #A1DDC6",
"_	c #38CDA4",
":	c #D9F5EE",
"<	c #DDF6EF",
"[	c #3BCDA6",
"}	c #3ACDA5",
"|	c #A4DEC6",
"1	c #70D1AF",
"2	c #E0F7F0",
"3	c #DCF6EF",
"4	c #48CBA3",
"5	c #E0F7F1",
"6	c #4CCCA4",
"7	c #71D1B0",
"8	c #DDF6F0",
"9	c #74D2B1",
"0	c #A4DEC7",
"a	c #D7EFE4",
"b	c #6FD1AF",
"c	c #B8E4D2",
"                                      ",
"                                      ",
"                                      ",
"                                      ",
"                                      ",
"                                      ",
"                                      ",
"                                      ",
"                                      ",
"               .+@##@+$               ",
"             %&********=-             ",
"            ;************>            ",
"           ;**************,           ",
"          %****************'          ",
"          =****)!****!)****~          ",
"         .****{]^!**!^]{****/         ",
"         (****_:]<[_:]<}****|         ",
"         1*****_:]23]<}*****@         ",
"         4******_3]]5}******4         ",
"         4******_3]]5[******6         ",
"         7*****_:]58]<[*****9         ",
"         +****_:]<}_:]<[****0         ",
"         $****{]^!**!^]{****a         ",
"          b****)!****!)****&          ",
"          -****************'          ",
"           >**************c           ",
"            >************,            ",
"             'b********b'             ",
"               /|9449|a               ",
"                                      ",
"                                      ",
"                                      ",
"                                      ",
"                                      ",
"                                      ",
"                                      ",
"                                      ",
"                                      "};
