/* XPM */
static char * close_prelight_xpm[] = {
"38 38 47 1",
" 	c None",
".	c #CFECE0",
"+	c #9ADBC2",
"@	c #72D2B0",
"#	c #46CBA2",
"$	c #9BDBC2",
"%	c #C0E6D6",
"&	c #4CCCA4",
"*	c #26C89C",
"=	c #4ECCA4",
"-	c #C1E7D7",
";	c #82D4B7",
">	c #7DD4B4",
",	c #62CFA9",
"'	c #64CFAB",
")	c #7FD4B5",
"!	c #81D5B6",
"~	c #BFE6D6",
"{	c #C2E7D8",
"]	c #7FDFC5",
"^	c #39CDA5",
"/	c #CEECE0",
"(	c #80DFC5",
"_	c #FFFFFF",
":	c #DAF6EE",
"<	c #D0ECE1",
"[	c #38CDA4",
"}	c #D9F5EE",
"|	c #DDF6EF",
"1	c #3BCDA6",
"2	c #3ACDA5",
"3	c #9CDBC2",
"4	c #6FD1AF",
"5	c #E0F7F0",
"6	c #DCF6EF",
"7	c #48CBA3",
"8	c #E0F7F1",
"9	c #71D1B0",
"0	c #DDF6F0",
"a	c #74D2B1",
"b	c #9CDCC3",
"c	c #D1EDE1",
"d	c #50CCA5",
"e	c #C3E8D9",
"f	c #83D5B7",
"g	c #65CFAB",
"h	c #7ED5B5",
"                                      ",
"                                      ",
"                                      ",
"                                      ",
"                                      ",
"                                      ",
"                                      ",
"                                      ",
"               .+@##@$.               ",
"             %&********=-             ",
"            ;************>            ",
"           ,**************'           ",
"          )****************!          ",
"         ~******************{         ",
"         &*****]^****^]*****=         ",
"        /*****(_:^**^:_(*****<        ",
"        +*****[}_|1[}_|2*****3        ",
"        4******[}_56_|2******@        ",
"        7*******[6__82*******7        ",
"        7*******[6__81*******&        ",
"        9******[}_80_|1******a        ",
"        $*****[}_|2[}_|1*****b        ",
"        .*****(_:^**^:_(*****c        ",
"         =*****]^****^]*****d         ",
"         -******************e         ",
"          !****************f          ",
"           '**************g           ",
"            f************h            ",
"             {=********de             ",
"               <$a77a3c               ",
"                                      ",
"                                      ",
"                                      ",
"                                      ",
"                                      ",
"                                      ",
"                                      ",
"                                      "};
